<svg version="1.2" xmlns="http://www.w3.org/2000/svg" viewBox="0 0 210 66" width="210" height="66">
	<title>New Project</title>
	<style>
		.s0 { fill: #ffffff } 
		.s1 { fill: #8b1e3f } 
	</style>
	<path id="Shape 2" fill-rule="evenodd" class="s0" d="m3.2 0h203.8c1.7 0 3 1.3 3 3v38c0 1.7-1.3 3-3 3h-203.8c-1.6 0-3-1.3-3-3v-38c0-1.7 1.4-3 3-3z"/>
	<path id="Sarkari" fill-rule="evenodd" class="s1" d="m20.2 38.3c-6.9 0-12.3-3.3-12.7-9.9h9.2c0.2 2.3 1.6 3.1 3.2 3.1 1.5 0 2.7-0.8 2.7-2.3-0.1-4.9-15.1-2.6-15-13.4 0-6 5.1-9.3 11.6-9.3 7.2 0 11.8 3.5 12.1 9.6h-9.3c-0.1-1.9-1.3-2.8-2.9-2.8-1.3 0-2.3 0.7-2.3 2.2 0 4.6 14.9 3.1 14.9 13.1 0 5.4-4.2 9.7-11.5 9.7zm35.2-5.4h-11l-1.7 5.1h-9.1l11.3-31h10l11.2 31h-9.1zm-5.5-16.6l-3.3 10h6.7zm32.7-9.3c7.7 0 11.5 4.4 11.5 9.9 0 4.1-2.2 7.6-6.8 9l7 12.1h-9.6l-6.2-11.4h-0.9v11.4h-8.6v-31zm-0.7 7.2h-4.3v6.5h4.3c2.3 0 3.5-1.2 3.5-3.3 0-1.9-1.2-3.2-3.5-3.2zm24.8 10.2v13.6h-8.6v-31h8.6v13.3l9.6-13.3h10l-11.4 15 11.9 16h-10.4zm43 8.5h-11l-1.7 5.1h-9.1l11.3-31h10l11.2 31h-9.1zm-5.5-16.6l-3.3 10h6.7zm32.7-9.3c7.7 0 11.5 4.4 11.5 9.9 0 4.1-2.2 7.6-6.8 9l7 12.1h-9.6l-6.2-11.5h-0.9v11.5h-8.6v-31zm-0.7 7.2h-4.3v6.4h4.3c2.3 0 3.5-1.1 3.5-3.2 0-1.9-1.2-3.2-3.5-3.2zm16.2-7.2h8.6v31h-8.6z"/>
	<path id="Search Result" fill-rule="evenodd" class="s0" d="m13.4 65.2c-3.6 0-6.4-1.8-6.6-5.2h4.8c0.1 1.2 0.8 1.6 1.6 1.6 0.9 0 1.5-0.4 1.5-1.2-0.1-2.6-7.9-1.4-7.8-7 0-3.2 2.6-4.9 6-4.9 3.7 0 6.2 1.8 6.3 5.1h-4.9c0-1-0.6-1.5-1.4-1.5-0.7 0-1.2 0.4-1.2 1.1 0 2.5 7.8 1.7 7.8 6.9 0 2.8-2.3 5.1-6.1 5.1zm20-12.8h-5.8v2.6h5.1v3.5h-5.1v2.9h5.8v3.6h-10.4v-16.2h10.4zm14 9.9h-5.8l-0.8 2.7h-4.8l5.9-16.2h5.2l5.9 16.2h-4.7zm-2.9-8.7l-1.7 5.2h3.4zm18.6-4.8c4.1 0 6.1 2.3 6.1 5.2 0 2.1-1.2 3.9-3.6 4.7l3.7 6.3h-5.1l-3.2-6h-0.5v6h-4.5v-16.2zm-0.3 3.7h-2.3v3.4h2.3c1.2 0 1.8-0.6 1.8-1.7 0-1-0.6-1.7-1.8-1.7zm17.4-3.9c4.1 0 7 2.3 7.8 6h-4.8c-0.6-1.2-1.7-1.9-3-1.9-2.1 0-3.5 1.7-3.5 4.1 0 2.5 1.4 4.2 3.5 4.2 1.3 0 2.4-0.7 3-1.9h4.8c-0.8 3.6-3.7 6-7.8 6-4.8 0-8-3.4-8-8.3 0-4.8 3.2-8.2 8-8.2zm21.4 9.9h-5.4v6.5h-4.6v-16.2h4.6v6.1h5.4v-6.1h4.6v16.2h-4.6zm21.6-9.7c4 0 6.1 2.3 6.1 5.2 0 2.1-1.2 3.9-3.6 4.7l3.7 6.3h-5.1l-3.2-6h-0.5v6h-4.5v-16.2zm-0.4 3.7h-2.2v3.4h2.2c1.3 0 1.9-0.6 1.9-1.7 0-1-0.6-1.7-1.9-1.7zm20.4-0.1h-5.9v2.6h5.2v3.5h-5.2v2.9h5.9v3.6h-10.4v-16.2h10.4zm9.8 12.7c-3.6 0-6.4-1.7-6.6-5.2h4.8c0.1 1.3 0.8 1.7 1.7 1.7 0.8 0 1.4-0.4 1.4-1.2 0-2.6-7.9-1.4-7.8-7 0-3.2 2.6-4.9 6-4.9 3.8 0 6.2 1.8 6.4 5h-4.9c-0.1-1-0.7-1.4-1.5-1.4-0.7-0.1-1.2 0.3-1.2 1.1 0 2.4 7.8 1.7 7.8 6.9 0 2.8-2.2 5-6.1 5zm9.6-16.3h4.5v9.4c0 1.6 0.7 2.7 2.4 2.7 1.7 0 2.5-1.1 2.5-2.7v-9.4h4.6v9.4c0 4.6-3.3 6.9-7.2 6.9-3.9 0-6.8-2.3-6.8-6.9zm22.4 0v12.7h5.1v3.5h-9.6v-16.2zm7.4 0h13.1v3.6h-4.3v12.6h-4.5v-12.6h-4.3z"/>
</svg>